<?xml version="1.0" encoding="utf-8"?><!-- Uploaded to: SVG Repo, www.svgrepo.com, Generator: SVG Repo Mixer Tools -->
<svg width="80px" height="80px" viewBox="0 0 512 512" xmlns="http://www.w3.org/2000/svg">
    <path fill="#000000" d="M201.56 19.495l-87.79 9.131-73.745 94.814v52.676l56.186 61.805 64.615-13.344 49.164 9.832-10.535 37.926 33.711 61.103-16.855 42.842 39.79 116.225 53.62-8.768 49.164-55.484 4.213-38.629 31.605-23.879-6.322-69.531 83.594-106.994-51.989 7.263-79.363-138.359-125.016-8.428-14.046-30.2zm252.346 319.8l-14.402 20.86-13.408.496c-11.849 24.321-12.598 38.019-13.907 66.547l17.383 4.471 21.852-52.147 2.482-40.226z"/>

<!--style type="text/css">
	.st0{fill:none;stroke:#000000;stroke-width:2;stroke-linecap:round;stroke-linejoin:round;stroke-miterlimit:10;}
</style>
<ellipse class="st0" cx="24" cy="20" rx="60" ry="50"/>
<ellipse class="st0" cx="8" cy="20" rx="60" ry="50"/>
<path class="st0" d="M11,7L11,7C9.7,5.3,7,5.7,6.3,7.7l-3.6,9.7"/>
<path class="st0" d="M21,7L21,7c1.3-1.7,4-1.3,4.7,0.7l3.6,9.7"/>
<path class="st0" d="M14,19.5c0.6-0.3,1.3-0.5,2-0.5c0.7,0,1.4,0.2,2,0.5"/-->

</svg>